<?xml version="1.0" encoding="utf-8"?>
<!-- Generator: Adobe Illustrator 26.2.1, SVG Export Plug-In . SVG Version: 6.00 Build 0)  -->
<svg version="1.1" id="Layer_1" xmlns="http://www.w3.org/2000/svg" xmlns:xlink="http://www.w3.org/1999/xlink" x="0px" y="0px"
	 viewBox="0 0 1025 366.05" style="enable-background:new 0 0 1025 366.05;" xml:space="preserve">
<style type="text/css">
	.st0{fill:#0B5F8F;}
	.st1{fill:#F2F2F2;}
	.st2{fill:#0A2C3F;}
	.st3{fill:#0B5E8F;}
	.st4{fill:none;stroke:#FFFFFF;stroke-miterlimit:10;}
	.st5{fill:#FFFFFF;}
</style>
<g>
	<g>
		<path class="st2" d="M412.96,165.34c-1.39-3.79-3.59-7.24-6.44-10.11c-2.81-2.61-6.12-4.63-9.73-5.94
			c-3.67-1.43-7.49-2.41-11.39-2.93c-4.1-0.48-8.23-0.71-12.36-0.69h-27.17v69.84h27.14c4.13,0.02,8.26-0.21,12.36-0.7
			c3.91-0.51,7.73-1.51,11.39-2.98c3.6-1.34,6.91-3.37,9.73-5.99c2.85-2.87,5.04-6.32,6.44-10.11c3.39-9.83,3.39-20.5,0-30.33
			 M402.01,192.81c-0.18,0.47-0.36,0.91-0.55,1.33c-0.99,2.08-2.39,3.94-4.11,5.48c-2.04,1.97-4.5,3.45-7.2,4.31
			c-2.63,0.95-5.36,1.58-8.13,1.88c-2.48,0.24-5.47,0.36-8.99,0.35h-15.73v-51.67h15.73c3.54,0,6.55,0.12,8.99,0.35
			c2.78,0.3,5.51,0.94,8.13,1.89c2.69,0.86,5.15,2.32,7.2,4.26c1.67,1.62,3.02,3.55,3.98,5.68c0.24,0.52,0.47,1.06,0.69,1.65
			c2.52,7.96,2.52,16.51,0,24.48"/>
		<polygon class="st2" points="455.05,178.72 455.05,184.95 451.86,184.95 451.86,178.72 429.8,145.62 417.53,145.62 447.74,190.11 
			447.74,215.47 458.66,215.47 458.66,190.11 489.5,145.62 477.23,145.62 		"/>
		<polygon class="st2" points="570.34,153.95 599.7,153.95 599.7,216.46 609.22,216.46 609.22,153.95 638.89,153.95 638.89,145.63 
			570.34,145.63 		"/>
		<path class="st2" d="M710.72,154.74c-7.08-6.74-16.67-10.11-28.79-10.11c-12.12,0-21.75,3.37-28.9,10.11
			c-7.08,6.74-10.63,15.32-10.63,25.76c0,10.43,3.54,19.04,10.63,25.83c7.08,6.74,16.71,10.11,28.9,10.11s21.79-3.37,28.79-10.11
			c7.08-6.74,10.63-15.35,10.63-25.83C721.35,170.01,717.81,161.42,710.72,154.74 M702.76,200.61c-4.76,5.02-11.7,7.53-20.82,7.53
			h-0.78c-8.74-0.15-15.46-2.63-20.11-7.5c-4.65-4.87-7.2-11.73-7.2-20.12c0-8.39,2.4-14.98,7.2-20c4.8-5.02,11.37-7.36,20.11-7.5
			c0.26,0,0.51,0,0.78,0c9.14,0,16.08,2.51,20.82,7.54c4.75,5.02,7.13,11.69,7.14,20c0,8.39-2.38,15.09-7.14,20.12"/>
		<path class="st2" d="M789.98,157.31c-1.61-3.09-4.15-5.6-7.26-7.18c-3.41-1.74-7.07-2.93-10.85-3.52
			c-4.77-0.72-9.58-1.05-14.4-0.99h-23.16v69.84h10.11v-23.49h13.1c4.82,0.06,9.63-0.27,14.4-0.99c3.78-0.59,7.44-1.77,10.85-3.52
			c3.11-1.57,5.65-4.08,7.26-7.18c3.23-7.32,3.23-15.67,0-22.99 M779.41,176.58c-1.08,2.02-2.83,3.61-4.95,4.49
			c-2.28,1-4.68,1.68-7.14,2.03c-3.13,0.4-6.28,0.58-9.44,0.54h-13.46v-29.71h13.48c3.15-0.03,6.31,0.15,9.44,0.55
			c2.46,0.35,4.87,1.03,7.14,2.03c2.12,0.88,3.87,2.47,4.95,4.49c2.13,4.97,2.13,10.59,0,15.56"/>
		<path class="st2" d="M881.68,145.93h-23.71l-26.19,69.85h11.49l9.79-26.36h33.62l9.79,26.36h11.45L881.68,145.93z M856.08,181.11
			l12.15-32.5h3.18l12.15,32.5H856.08z"/>
		<rect x="807.82" y="145.62" class="st2" width="10.29" height="69.84"/>
		<path class="st2" d="M536.24,176.88h-15.73v-0.08c-9.05,0-16.42-5.11-16.42-11.39c0-6.28,7.37-11.38,16.42-11.38v-0.08h39.08
			v-8.32h-39.04c-14.6,0-26.43,8.85-26.43,19.78c0,10.93,11.84,19.79,26.43,19.79h15.73v0.12c9.05,0,16.42,5.1,16.42,11.38
			s-7.37,11.39-16.42,11.39v0.08h-39.44v8.32h39.4c14.6,0,26.43-8.86,26.43-19.79s-11.83-19.79-26.43-19.79"/>
		<path class="st3" d="M197.58,117.33h-81.64l0,0L159.31,169c2.61,3.12,6.47,4.92,10.54,4.92h17.32l-32.29-38.48h41.85
			c25.71,0,47.42,20.05,48.39,45.74c0.59,15.44-6.36,30.21-18.65,39.58l-19.93-23.75c-2.61-3.12-6.47-4.92-10.54-4.92h-17.32
			l30.98,37.03c-3.95,1.04-8.01,1.56-12.09,1.56h-59.97c-4.06,0-7.92,1.8-10.54,4.91l-11.13,13.27h80.65
			c36.13,0,66.27-28.73,66.73-64.86c0.46-36.34-28.63-66.17-64.96-66.63c-0.26,0-0.52-0.01-0.78-0.01"/>
	</g>
	<rect x="0.5" y="0.5" class="st4" width="1024" height="365.05"/>
</g>
</svg>
