<?xml version="1.0" encoding="utf-8"?>
<!-- Generator: Adobe Illustrator 26.2.1, SVG Export Plug-In . SVG Version: 6.00 Build 0)  -->
<svg version="1.1" id="Layer_1" xmlns="http://www.w3.org/2000/svg" xmlns:xlink="http://www.w3.org/1999/xlink" x="0px" y="0px"
	 viewBox="0 0 1025 637.25" style="enable-background:new 0 0 1025 637.25;" xml:space="preserve">
<style type="text/css">
	.st0{fill:#0B5F8F;}
	.st1{fill:#F2F2F2;}
	.st2{fill:#0A2C3F;}
	.st3{fill:#0B5E8F;}
	.st4{fill:none;stroke:#FFFFFF;stroke-miterlimit:10;}
	.st5{fill:#FFFFFF;}
</style>
<g>
	<g>
		<path class="st2" d="M211.02,448.65c-1.94-5.36-5.03-10.23-9.05-14.27c-3.97-3.68-8.63-6.52-13.72-8.37
			c-5.16-2.01-10.55-3.4-16.05-4.12c-5.79-0.68-11.61-1-17.44-0.97h-38.25v98.4h38.23c5.83,0.03,11.65-0.3,17.44-0.98
			c5.5-0.72,10.89-2.13,16.05-4.19c5.08-1.89,9.74-4.76,13.72-8.45c4.02-4.04,7.11-8.91,9.05-14.27c4.78-13.84,4.78-28.88,0-42.72
			 M195.63,487.31c-0.25,0.68-0.51,1.28-0.78,1.87c-1.41,2.93-3.38,5.55-5.8,7.72c-2.87,2.77-6.33,4.85-10.13,6.07
			c-3.71,1.34-7.56,2.23-11.48,2.66c-3.49,0.32-7.72,0.49-12.69,0.49h-22.12v-72.78h22.1c5,0,9.23,0.16,12.69,0.49
			c3.92,0.42,7.77,1.31,11.48,2.65c3.78,1.22,7.25,3.27,10.13,6.01c2.37,2.28,4.27,5,5.61,8.01c0.33,0.73,0.65,1.49,0.97,2.32
			c3.53,11.22,3.53,23.26,0,34.49"/>
		<polygon class="st2" points="270.33,467.49 270.33,476.29 265.85,476.29 265.85,467.49 234.75,420.87 217.47,420.87 
			260.03,483.55 260.03,519.29 275.41,519.29 275.41,483.55 318.89,420.87 301.59,420.87 		"/>
		<polygon class="st2" points="432.8,432.59 474.17,432.59 474.17,520.69 487.58,520.69 487.58,432.59 529.39,432.59 529.39,420.87 
			432.8,420.87 		"/>
		<path class="st2" d="M630.59,433.7c-9.97-9.51-23.49-14.27-40.56-14.27c-17.07,0-30.65,4.76-40.73,14.27
			c-9.97,9.51-14.96,21.61-14.97,36.3c-0.01,14.68,4.98,26.84,14.97,36.47c9.97,9.51,23.55,14.27,40.73,14.27
			c17.19,0,30.71-4.76,40.56-14.27c9.97-9.51,14.96-21.67,14.97-36.47C645.57,455.2,640.58,443.1,630.59,433.7 M619.38,498.33
			c-6.72,7.07-16.51,10.61-29.35,10.61h-1.11c-12.3-0.2-21.74-3.73-28.32-10.58c-6.77-7.07-10.15-16.52-10.15-28.34
			c0-11.82,3.38-21.22,10.15-28.21c6.56-6.87,16-10.39,28.32-10.56c0.38,0,0.73,0,1.11,0c12.86,0,22.65,3.54,29.35,10.61
			c6.7,7.07,10.05,16.47,10.05,28.21c0,11.82-3.35,21.26-10.05,28.34"/>
		<path class="st2" d="M742.38,437.33c-2.27-4.35-5.85-7.89-10.23-10.12c-4.8-2.45-9.97-4.12-15.3-4.95
			c-6.71-1.01-13.49-1.48-20.28-1.4h-32.73v98.45h14.19V486.2h18.46c6.79,0.08,13.57-0.39,20.28-1.4c5.33-0.83,10.5-2.5,15.3-4.96
			c4.39-2.22,7.96-5.76,10.23-10.12c4.55-10.32,4.55-22.07,0-32.39 M727.33,464.5c-1.52,2.86-3.99,5.11-6.99,6.34
			c-3.2,1.42-6.58,2.39-10.05,2.87c-4.41,0.56-8.86,0.81-13.3,0.76h-19.03v-41.88h19.03c4.45-0.06,8.89,0.2,13.3,0.78
			c3.47,0.48,6.85,1.44,10.05,2.85c2.99,1.24,5.47,3.48,6.99,6.34c2.98,7,2.98,14.91,0,21.91"/>
		<path class="st2" d="M871.51,421.3h-33.43l-36.91,98.42h16.13l13.87-37.14h47.38l13.81,37.14h16.13L871.51,421.3z M835.42,470.87
			l17.12-45.79h4.49l17.14,45.79H835.42z"/>
		<rect x="767.43" y="420.87" class="st2" width="14.51" height="98.42"/>
		<path class="st2" d="M384.74,464.91h-22.12v-0.11c-12.69,0-23.13-7.2-23.13-16.05s10.39-16.03,23.13-16.03v-0.13h55.07v-11.72
			h-55.07c-20.61,0-37.23,12.48-37.23,27.88s16.67,27.89,37.23,27.89h22.12v0.11c12.76,0,23.13,7.2,23.13,16.05
			s-10.37,16.05-23.13,16.05v0.11h-55.5v11.73h55.5c20.61,0,37.25-12.49,37.25-27.89S405.3,464.91,384.74,464.91"/>
		<path class="st3" d="M481.35,196.35c4.03,4.81,9.98,7.58,16.25,7.58h26.72l-49.82-59.37h64.58c39.64,0,73.16,30.94,74.67,70.58
			c0.91,23.83-9.82,46.61-28.78,61.08l-30.75-36.66c-4.03-4.8-9.98-7.57-16.25-7.58h-26.73l47.81,56.97
			c-6.09,1.59-12.35,2.39-18.65,2.39h-92.54c-6.28,0-12.23,2.77-16.27,7.58l-17.17,20.47h124.44c55.75,0,102.23-44.32,102.96-100.07
			c0.74-56.04-44.1-102.07-100.14-102.8c-0.45-0.01-0.89-0.01-1.34-0.01h-125.9v0.06L481.35,196.35z"/>
	</g>
	
		<rect x="194.38" y="-193.38" transform="matrix(-1.836970e-16 1 -1 -1.836970e-16 831.1248 -193.8752)" class="st4" width="636.25" height="1024"/>
</g>
</svg>
