<?xml version="1.0" encoding="utf-8"?>
<!-- Generator: Adobe Illustrator 26.2.1, SVG Export Plug-In . SVG Version: 6.00 Build 0)  -->
<svg version="1.1" id="Layer_1" xmlns="http://www.w3.org/2000/svg" xmlns:xlink="http://www.w3.org/1999/xlink" x="0px" y="0px"
	 viewBox="0 0 1024 1024" style="enable-background:new 0 0 1024 1024;" xml:space="preserve">
<style type="text/css">
	.st0{fill:#0B5F8F;}
	.st1{fill:#F2F2F2;}
	.st2{fill:#0A2C3F;}
	.st3{fill:#0B5E8F;}
	.st4{fill:none;stroke:#FFFFFF;stroke-miterlimit:10;}
	.st5{fill:#FFFFFF;}
</style>
<g>
	<path class="st0" d="M1024,512c0,282.77-229.23,512-512,512S0,794.77,0,512C0,229.23,229.23,0,512,0S1024,229.23,1024,512L1024,512
		"/>
	<path class="st1" d="M583.02,229.41H225.79l0,0L415.52,455.6c11.49,13.69,28.47,21.55,46.34,21.47h75.53L396.16,308.75h183.1
		c112.45,0,207.45,87.53,211.72,200.09c2.57,67.57-27.87,132.17-81.61,173.21L622.2,578.14c-11.48-13.7-28.46-21.59-46.34-21.52
		h-75.54l135.52,161.52c-17.24,4.56-35,6.86-52.83,6.85h-262.6c-17.86-0.06-34.84,7.8-46.34,21.47l-48.71,58.08h352.91
		c158.02,0,289.83-125.74,291.95-283.76c2.05-158.98-125.17-289.51-284.15-291.56c-1.16-0.02-2.32-0.02-3.47-0.02"/>
</g>
</svg>
